<?xml version="1.0" standalone="no"?>
<!DOCTYPE svg PUBLIC "-//W3C//DTD SVG 20010904//EN"
 "http://www.w3.org/TR/2001/REC-SVG-20010904/DTD/svg10.dtd">
<svg version="1.0" xmlns="http://www.w3.org/2000/svg"
 width="256.000000pt" height="256.000000pt" viewBox="0 0 256.000000 256.000000"
 preserveAspectRatio="xMidYMid meet">
<metadata>
Created by potrace 1.11, written by Peter Selinger 2001-2013
</metadata>
<g transform="translate(0.000000,256.000000) scale(0.100000,-0.100000)"
fill="#000000" stroke="none">
<path d="M2075 2396 c-62 -20 -101 -48 -196 -140 -48 -47 -90 -86 -93 -86 -3
0 -34 27 -68 60 -39 38 -70 60 -84 60 -29 0 -694 -659 -694 -688 0 -29 24 -54
53 -54 22 0 84 56 333 306 168 168 307 306 309 306 2 0 19 -17 39 -37 l34 -37
-600 -600 c-330 -330 -610 -614 -623 -631 -12 -16 -56 -95 -97 -175 -42 -80
-114 -219 -161 -310 -78 -151 -85 -168 -74 -190 20 -41 55 -37 159 18 51 27
147 77 213 112 66 34 170 89 230 121 l110 58 609 610 c527 527 612 608 630
601 46 -17 97 38 67 73 -8 10 9 32 70 93 95 94 131 142 153 208 49 143 -11
288 -133 325 -49 14 -135 13 -186 -3z m165 -104 c36 -17 69 -69 70 -108 0 -11
-7 -44 -16 -74 -13 -44 -31 -69 -111 -151 l-95 -98 -113 112 -113 112 86 88
c129 131 206 163 292 119z m-309 -427 l79 -80 -527 -527 -528 -528 -112 112
-113 113 527 527 527 528 34 -33 c19 -17 70 -68 113 -112z m-1093 -1251 c-24
-23 -77 -60 -118 -82 -367 -193 -418 -216 -381 -176 4 5 52 95 106 199 54 105
103 199 109 210 6 11 31 41 56 68 l44 47 113 -112 113 -113 -42 -41z"/>
</g>
</svg>
